<?xml version="1.0" encoding="iso-8859-1"?>
<!-- Generator: Adobe Illustrator 28.7.10, SVG Export Plug-In . SVG Version: 9.03 Build 57640)  -->
<svg version="1.1" id="Capa_1" xmlns="http://www.w3.org/2000/svg" xmlns:xlink="http://www.w3.org/1999/xlink" x="0px" y="0px"
	 viewBox="0 0 283.465 283.465" style="enable-background:new 0 0 283.465 283.465;" xml:space="preserve">
<path style="fill:#4CAF50;stroke:#4CAF50;stroke-miterlimit:10;" d="M141.73,28.345c-62.62,0-113.38,50.77-113.38,113.39
	s50.76,113.38,113.38,113.38s113.39-50.76,113.39-113.38S204.35,28.345,141.73,28.345z M40.28,145.085
	c-0.05-2.93,0.14-5.57,0.44-7.85c8.41,0,16.82,0.01,25.23,0.01c-0.06,5.62-0.13,11.23-0.19,16.85c-8.2-0.05-16.41-0.1-24.61-0.15
	C40.69,151.435,40.33,148.455,40.28,145.085z M204.99,164.755c-10.15,11.21-22.87,16.38-22.87,16.38
	c-7.13,2.9-13.52,3.88-17.92,4.22h-7.25c-0.33,20.14-0.66,40.29-0.99,60.43c-7.33,0.88-43.93,4.5-76.3-21.06
	c-25.09-19.81-33.09-45.65-35.43-54.59H68.2c1.87,7.99,4.62,14.99,8.25,21.01c3.62,6.03,7.9,11.04,12.84,15.03
	c4.94,3.99,10.41,7,16.41,9.03s12.25,3.04,18.76,3.04c5.73,0,10.52-0.92,14.81-1.72c2.1-0.39,3.83-0.78,5.04-1.06
	c0.07-7.33,0.14-14.65,0.21-21.98c-1.75,0.68-4.37,1.52-7.87,2.54c-3.51,1.01-7.44,1.52-11.82,1.52c-8.38,0-15.63-2.34-21.75-7.01
	c-6.13-4.67-10.63-11.47-13.5-20.4h41.07v-16.04H86.57c0.06-5.62,0.13-11.23,0.19-16.85h43.89v-15.63H90.14
	c3-8.39,7.47-14.75,13.41-19.08c5.93-4.33,13.03-6.5,21.28-6.5c2.63,0,5.82,0.34,9.57,1.02c3.75,0.68,7.12,1.62,10.12,2.84
	c-0.07-6.64-0.14-13.28-0.21-19.92c-3.97-2.23-11.13-5.52-20.42-5.86c-8.51-0.31-15.25,1.98-18.28,3.04
	c-5.81,2.03-11.16,5.05-16.03,9.04c-4.88,3.99-9.16,8.93-12.85,14.82c-3.69,5.88-6.47,12.76-8.35,20.6
	c-8.58,0.2-17.17,0.39-25.75,0.59c2.22-12.04,8.6-36.33,29.2-55.52c32.26-30.06,93.92-42.46,127.71-7.68
	C231.01,91.395,221.08,146.955,204.99,164.755z"/>
<path style="fill:#4CAF50;stroke:#4CAF50;stroke-miterlimit:10;" d="M207.7,118.295c-0.39,9.58-1.16,28.85-16.65,41.42
	c-13.15,10.68-28.91,10.05-33.67,9.68c-1.17-39.1-2.33-78.19-3.49-117.29c6.2,0.54,20.25,2.64,32.9,13.16
	C209.09,83.795,207.93,112.555,207.7,118.295z"/>
</svg>
